<?xml version="1.0" standalone="no"?>
<!DOCTYPE svg PUBLIC "-//W3C//DTD SVG 20010904//EN"
 "http://www.w3.org/TR/2001/REC-SVG-20010904/DTD/svg10.dtd">
<svg version="1.0" xmlns="http://www.w3.org/2000/svg" width="500.000000pt" height="500.000000pt" viewBox="0 0 500.000000 500.000000" preserveAspectRatio="xMidYMid meet">
  <metadata>
    Created by potrace 1.16, written by Peter Selinger 2001-2019
  </metadata>
  <g transform="translate(0.000000,500.000000) scale(0.100000,-0.100000)" fill="#000000" stroke="none">
    <path
      d="M0 2500 l0 -2500 2500 0 2500 0 0 2500 0 2500 -2500 0 -2500 0 0
-2500z m3525 1002 c150 -34 238 -80 323 -171 165 -176 145 -479 -44 -668 -113
-111 -275 -172 -510 -189 l-94 -7 0 24 c0 22 6 26 68 37 85 16 143 51 187 110
58 79 77 154 82 332 9 280 -37 416 -162 483 -33 18 -57 22 -137 22 -91 0 -99
-2 -123 -25 -15 -16 -28 -45 -35 -79 -14 -77 -14 -1653 1 -1706 22 -79 84
-133 172 -149 28 -5 37 -12 37 -26 0 -19 -9 -20 -310 -20 l-310 0 0 940 c0
1058 4 1002 -72 1041 -67 34 -228 35 -228 1 0 -4 25 -25 55 -47 90 -65 117
-151 76 -240 -69 -149 -288 -154 -362 -8 -25 50 -25 153 0 208 35 76 123 136
224 154 23 4 274 6 557 5 480 -1 521 -2 605 -22z m-1494 -536 c57 -49 151 -86
234 -93 l75 -6 0 -600 c0 -592 0 -601 21 -645 25 -50 73 -86 142 -103 33 -8
47 -16 47 -29 0 -16 -32 -17 -437 -23 -544 -7 -641 3 -803 81 -244 119 -328
391 -202 652 16 31 55 84 93 122 106 106 246 164 454 188 141 16 155 14 155
-14 0 -21 -6 -24 -50 -30 -88 -12 -170 -59 -213 -124 -52 -80 -69 -153 -75
-322 -8 -279 38 -418 162 -482 30 -16 65 -23 131 -26 87 -4 92 -3 122 22 23
19 34 41 42 77 7 33 11 291 11 761 l0 712 28 -45 c16 -24 44 -57 63 -73z"/>
  </g>
</svg>
