<?xml version="1.0" standalone="no"?>
<!DOCTYPE svg PUBLIC "-//W3C//DTD SVG 20010904//EN"
 "http://www.w3.org/TR/2001/REC-SVG-20010904/DTD/svg10.dtd">
<svg version="1.0" xmlns="http://www.w3.org/2000/svg" width="1022.000000pt" height="392.000000pt" viewBox="0 0 1022.000000 392.000000" preserveAspectRatio="xMidYMid meet">
  <metadata>
    Created by potrace 1.16, written by Peter Selinger 2001-2019
  </metadata>
  <g transform="translate(0.000000,392.000000) scale(0.100000,-0.100000)" fill="#000000" stroke="none">
    <path
      d="M4949 3872 c-158 -53 -234 -175 -200 -319 45 -186 311 -200 385 -21
35 82 12 149 -76 230 -35 31 -59 60 -54 65 4 4 47 8 95 7 102 -1 157 -22 181
-69 13 -26 15 -162 18 -1003 l3 -972 316 2 c338 3 378 10 269 44 -68 21 -119
62 -149 117 l-21 42 -1 865 c0 864 0 865 21 911 28 61 65 74 181 66 96 -7 132
-24 188 -90 58 -67 77 -145 83 -332 7 -249 -21 -370 -106 -458 -47 -49 -81
-67 -162 -87 -53 -13 -66 -20 -68 -38 -3 -20 1 -22 45 -22 72 0 239 27 313 51
253 81 410 281 410 522 0 147 -44 248 -151 344 -53 48 -100 76 -171 103 -133
49 -159 51 -743 56 -515 4 -554 3 -606 -14z"/>
    <path
      d="M4557 2681 c-5 -709 -6 -741 -25 -784 -11 -25 -29 -50 -40 -56 -27
-14 -156 -14 -207 0 -99 28 -163 107 -190 236 -19 89 -19 355 -1 444 35 166
127 261 274 284 45 7 63 28 43 48 -16 16 -223 -9 -330 -39 -121 -36 -195 -78
-277 -159 -110 -108 -154 -215 -154 -371 0 -242 158 -418 432 -479 141 -32
1085 -30 1095 2 2 6 -13 17 -34 23 -68 22 -111 49 -140 87 l-28 36 -5 631 -5
631 -68 7 c-132 15 -238 70 -298 153 -18 25 -33 45 -34 45 -1 0 -4 -333 -8
-739z"/>
    <path
      d="M1673 1506 c-28 -14 -65 -34 -81 -46 -25 -18 -33 -20 -73 -11 -75 18
-297 24 -425 12 -258 -24 -422 -64 -590 -146 -183 -89 -280 -205 -291 -349
-17 -202 159 -332 366 -270 100 29 187 139 179 225 l-3 34 -34 -63 c-40 -74
-117 -144 -182 -168 -88 -31 -174 7 -221 100 -31 61 -22 157 23 232 66 110
212 212 397 278 107 38 300 74 432 81 112 6 324 -5 336 -18 4 -4 -22 -37 -56
-74 -131 -140 -270 -356 -418 -648 -44 -88 -109 -202 -143 -254 -142 -212
-312 -333 -491 -348 -125 -11 -198 39 -198 135 0 36 6 49 39 85 39 42 40 42
113 42 40 0 85 -3 100 -8 43 -11 33 8 -9 21 -116 34 -229 22 -290 -31 -98 -86
-80 -201 42 -262 50 -25 73 -30 156 -33 143 -6 251 23 363 96 81 54 212 187
302 308 l75 101 127 6 c175 9 317 43 452 108 94 46 115 62 200 148 125 126
155 180 155 281 -1 89 -20 133 -87 196 -59 57 -118 92 -217 130 l-84 31 51 39
c28 22 51 45 51 52 1 17 -6 15 -66 -12z m40 -156 c185 -69 251 -221 170 -389
-35 -73 -159 -201 -247 -256 -75 -47 -164 -84 -262 -109 -67 -17 -243 -40
-251 -33 -2 3 11 29 29 59 19 29 52 85 73 123 121 223 270 478 338 579 44 66
44 66 150 26z"/>
    <path
      d="M7920 1513 c-19 -8 -55 -27 -80 -43 -42 -27 -48 -28 -95 -18 -82 18
-433 15 -560 -5 -379 -60 -620 -183 -710 -363 -25 -50 -30 -71 -30 -139 0 -90
15 -132 70 -188 97 -100 279 -103 389 -6 60 53 88 107 84 162 l-3 42 -34 -63
c-35 -64 -100 -130 -156 -160 -16 -8 -56 -16 -87 -16 -66 -1 -96 16 -143 83
-27 38 -30 51 -30 114 0 94 28 151 115 237 71 70 187 137 318 184 106 38 299
74 432 81 112 6 324 -5 336 -18 4 -4 -19 -35 -51 -69 -130 -140 -253 -329
-397 -607 -152 -293 -234 -413 -347 -507 -188 -156 -437 -192 -495 -70 -31 66
-10 135 56 177 28 17 45 20 103 16 39 -3 78 -8 88 -12 10 -4 17 -3 17 3 0 14
-58 30 -136 38 -87 9 -161 -14 -208 -66 -40 -45 -51 -76 -42 -123 11 -57 41
-93 103 -123 49 -24 73 -29 158 -32 258 -10 440 104 677 424 l60 81 127 6
c174 9 316 43 451 108 93 46 116 62 201 148 121 121 154 183 154 286 -1 83
-22 129 -87 192 -59 56 -126 96 -214 129 -41 15 -74 30 -74 35 0 5 20 23 45
41 24 18 44 39 45 46 0 15 -6 14 -50 -5z m23 -163 c71 -27 132 -72 172 -129
27 -39 30 -50 30 -120 0 -113 -36 -181 -158 -298 -106 -101 -204 -156 -347
-197 -88 -25 -264 -51 -280 -41 -5 3 8 33 29 68 21 34 53 89 71 122 95 172
269 470 317 544 61 94 55 92 166 51z"/>
    <path
      d="M5660 1187 c-27 -13 -33 -25 -166 -302 -47 -99 -90 -185 -96 -192 -7
-9 -17 -8 -43 3 -49 20 -125 17 -192 -7 -87 -33 -177 -128 -239 -253 -44 -89
-48 -104 -52 -185 -4 -86 -3 -89 24 -120 31 -34 82 -49 128 -37 35 9 91 60
144 131 l44 60 -7 -42 c-5 -31 -2 -53 13 -86 24 -55 51 -71 107 -64 53 5 104
43 155 114 38 54 50 54 50 0 0 -38 38 -87 83 -107 92 -42 197 -12 279 78 46
51 138 216 138 246 0 34 -19 13 -58 -63 -87 -173 -194 -265 -284 -246 -59 13
-86 114 -55 204 11 31 18 36 80 53 93 25 141 51 196 106 115 116 107 232 -16
232 -53 0 -100 -19 -164 -66 -63 -46 -122 -130 -193 -277 -89 -182 -200 -285
-236 -218 -27 51 0 127 150 430 119 241 233 450 300 552 l38 57 -37 6 c-51 8
-63 7 -91 -7z m-303 -520 c23 -13 22 -13 -58 -157 -99 -176 -167 -276 -225
-330 -79 -72 -132 -46 -121 59 12 109 155 316 275 398 66 45 92 51 129 30z
m581 -37 c4 -57 -36 -124 -105 -174 -50 -37 -132 -70 -158 -64 -35 7 126 224
200 270 45 27 60 20 63 -32z"/>
    <path
      d="M9112 1175 c-17 -15 -45 -62 -72 -122 -23 -54 -74 -160 -111 -235
l-69 -137 -35 14 c-54 23 -141 19 -203 -10 -112 -52 -167 -117 -268 -315 -70
-139 -152 -231 -221 -249 -82 -22 -124 8 -131 94 -2 31 1 75 7 98 12 41 14 43
69 56 86 19 152 53 205 105 83 80 108 166 62 211 -19 20 -34 25 -78 25 -107 0
-233 -105 -306 -254 -88 -180 -75 -309 36 -358 105 -46 233 7 315 130 15 22
15 22 21 -23 12 -84 60 -123 138 -112 52 7 99 44 152 118 l42 61 3 -39 c4 -61
10 -79 38 -112 21 -26 33 -31 67 -31 107 0 200 116 318 395 46 109 47 110 82
113 19 2 51 -4 71 -12 44 -18 47 -43 11 -106 -107 -189 -129 -265 -99 -331 21
-48 39 -59 95 -59 38 0 48 5 99 58 31 31 66 71 78 87 l21 30 1 -38 c0 -49 22
-100 51 -121 36 -25 117 -21 174 9 l47 26 42 -21 c111 -53 206 6 300 189 53
104 62 131 44 131 -7 -1 -33 -42 -58 -92 -31 -63 -64 -112 -105 -155 -56 -58
-64 -63 -103 -63 -29 0 -48 6 -62 20 l-21 21 45 52 c58 65 123 195 137 271 22
124 -26 206 -121 206 -128 0 -250 -114 -353 -330 -98 -207 -217 -311 -217
-190 0 57 29 136 105 290 36 73 65 143 65 156 l0 23 -120 -6 c-66 -3 -120 -3
-120 1 0 4 13 18 29 32 62 52 80 146 36 189 -45 46 -70 25 -91 -75 -34 -170
-123 -390 -216 -537 -112 -178 -220 -160 -161 28 24 76 294 608 390 769 76
127 80 135 60 142 -47 13 -86 8 -115 -17z m-794 -537 c6 -77 -57 -161 -160
-212 -63 -32 -118 -46 -118 -30 0 3 20 37 45 75 76 117 176 214 215 207 9 -2
16 -17 18 -40z m507 28 c17 -13 16 -17 -30 -102 -153 -283 -261 -424 -327
-424 -36 0 -48 19 -48 74 1 99 89 255 208 367 96 92 154 117 197 85z m1061
-41 c29 -45 15 -147 -36 -254 -24 -50 -46 -91 -49 -91 -4 0 -11 10 -16 23 -7
15 -20 23 -42 25 -54 5 -78 -53 -51 -128 10 -30 9 -35 -11 -51 -34 -28 -88
-35 -111 -14 -45 41 -32 131 41 282 50 104 129 202 181 222 43 18 76 13 94
-14z"/>
    <path
      d="M3122 1143 c-57 -28 -119 -109 -189 -249 l-68 -134 -57 0 c-51 0 -58
-2 -58 -20 0 -17 7 -20 50 -20 28 0 50 -2 50 -4 0 -2 -13 -36 -30 -76 -16 -40
-44 -116 -61 -169 -37 -115 -114 -255 -169 -304 -38 -35 -114 -67 -127 -54 -3
4 12 26 35 51 64 69 75 98 70 180 -4 53 -15 92 -43 155 -33 74 -37 91 -33 144
4 52 9 64 37 89 27 24 38 28 67 22 26 -5 34 -3 34 9 0 19 -21 27 -71 27 -64 0
-104 -50 -209 -262 -67 -135 -100 -191 -125 -212 -25 -20 -37 -39 -41 -67 -9
-57 -79 -119 -133 -119 -23 0 -48 8 -62 18 l-22 19 51 62 c78 94 125 198 130
293 7 126 -28 178 -121 178 -69 0 -129 -31 -203 -104 -102 -102 -165 -235
-166 -347 0 -72 17 -117 54 -143 35 -25 112 -20 170 9 l51 26 44 -22 c57 -27
111 -21 168 19 l41 29 16 -27 c28 -49 74 -61 195 -55 59 4 127 13 150 21 39
14 105 75 145 134 l17 25 0 -38 c1 -47 26 -102 55 -122 30 -21 114 -19 152 4
85 52 164 172 245 370 l47 116 41 3 c55 4 101 -21 101 -54 0 -14 -24 -69 -54
-122 -62 -109 -91 -197 -81 -242 4 -17 18 -44 32 -60 20 -24 33 -30 66 -30 53
0 94 29 154 108 l48 62 11 -45 c17 -64 39 -94 87 -116 78 -35 174 -17 249 46
l31 26 19 -31 c26 -43 79 -64 143 -56 27 4 71 6 97 6 123 -2 203 62 287 231
28 55 48 106 44 111 -8 14 -26 -10 -60 -77 -49 -97 -112 -184 -150 -209 -38
-24 -103 -44 -103 -31 0 4 16 26 36 48 84 93 92 170 31 318 -43 106 -50 140
-36 195 15 59 59 92 100 77 33 -13 48 -1 29 22 -8 9 -30 15 -58 15 -69 0 -108
-47 -218 -265 -58 -114 -104 -193 -127 -217 -23 -22 -37 -45 -37 -62 0 -27
-55 -88 -100 -111 -109 -56 -180 -1 -166 128 8 80 16 92 78 105 122 28 218 95
262 185 33 65 33 101 1 132 -19 20 -34 25 -75 25 -125 0 -246 -114 -343 -321
-106 -228 -227 -336 -227 -203 0 41 37 137 105 277 36 72 65 144 65 158 l0 27
-122 -6 -123 -5 46 51 c29 32 49 64 52 84 6 45 -13 99 -40 109 -40 15 -59 -16
-91 -146 -16 -66 -48 -168 -71 -227 -103 -262 -260 -436 -323 -358 -23 29 -23
47 4 172 l22 102 68 74 c38 41 92 107 119 146 l50 71 57 5 c44 4 58 9 60 23 3
14 -4 17 -42 17 -25 0 -46 4 -46 9 0 5 23 56 51 115 65 137 76 210 36 250 -30
30 -32 31 -75 9z m58 -86 c0 -44 -32 -136 -78 -222 -36 -68 -38 -70 -79 -73
-24 -2 -43 1 -43 7 0 19 109 236 139 279 38 52 61 55 61 9z m758 -427 c4 -57
-37 -124 -104 -173 -50 -37 -133 -71 -159 -65 -35 7 124 223 200 270 45 27 60
20 63 -32z m-1848 0 c40 -40 21 -160 -47 -294 l-35 -70 -14 32 c-26 62 -104
33 -104 -39 0 -21 5 -50 12 -64 11 -24 9 -29 -12 -46 -60 -45 -121 -31 -135
31 -16 74 71 287 156 384 74 82 139 106 179 66z m365 -135 c8 -72 15 -148 15
-171 0 -54 -25 -133 -53 -168 -21 -25 -25 -27 -44 -16 -30 19 -49 58 -58 114
-3 27 -11 56 -17 66 -8 13 5 49 61 165 39 81 73 146 76 144 2 -3 11 -63 20
-134z m1717 -145 c3 -102 -15 -164 -59 -203 -19 -17 -21 -16 -46 3 -27 21 -47
73 -47 122 0 15 -7 33 -15 42 -14 14 -8 31 62 168 l77 153 13 -95 c7 -52 14
-138 15 -190z"/>
  </g>
</svg>
