<?xml version="1.0" standalone="no"?>
<!DOCTYPE svg PUBLIC "-//W3C//DTD SVG 20010904//EN"
 "http://www.w3.org/TR/2001/REC-SVG-20010904/DTD/svg10.dtd">
<svg version="1.0" xmlns="http://www.w3.org/2000/svg"
 width="401.000000pt" height="512.000000pt" viewBox="0 0 401.000000 512.000000"
 preserveAspectRatio="xMidYMid meet">
<metadata>
Created by potrace 1.16, written by Peter Selinger 2001-2019
</metadata>
<g transform="translate(0.000000,512.000000) scale(0.100000,-0.100000)"
fill="#000000" stroke="none">
<path d="M1835 4734 c-357 -34 -690 -187 -951 -436 -325 -311 -494 -705 -494
-1152 0 -176 19 -306 66 -464 175 -579 662 -1008 1261 -1112 212 -37 462 -25
677 31 584 153 1033 634 1157 1239 30 149 31 459 1 605 -103 500 -425 918
-872 1133 -224 107 -400 150 -640 156 -91 2 -183 2 -205 0z m331 -328 c250
-38 436 -122 647 -294 322 -261 498 -733 431 -1154 -46 -293 -168 -528 -379
-733 -161 -158 -352 -262 -595 -326 -75 -20 -109 -23 -290 -23 -216 0 -256 6
-422 64 -275 95 -506 285 -675 556 -73 117 -141 313 -162 467 -35 253 8 525
115 740 163 324 445 565 779 663 171 50 381 66 551 40z"/>
<path d="M1520 3425 l-465 -465 128 -127 127 -128 340 340 340 340 340 -340
339 -339 22 20 c42 36 229 227 229 233 0 7 -923 931 -930 931 -3 0 -214 -209
-470 -465z"/>
<path d="M1874 1415 c-88 -19 -168 -61 -229 -122 -106 -104 -145 -201 -152
-384 -5 -112 -3 -136 17 -200 30 -99 59 -155 115 -217 147 -164 405 -204 615
-97 105 54 181 148 226 281 23 67 27 96 28 194 1 66 -5 138 -13 170 -69 279
-324 437 -607 375z m261 -144 c154 -68 237 -262 206 -475 -8 -49 -25 -110 -40
-143 -81 -171 -290 -240 -466 -154 -75 37 -117 82 -158 170 -26 55 -31 79 -35
168 -11 242 62 381 231 444 70 26 191 22 262 -10z"/>
<path d="M550 1345 l0 -65 175 0 175 0 0 -465 0 -465 75 0 75 0 0 465 0 465
170 0 170 0 0 65 0 65 -420 0 -420 0 0 -65z"/>
<path d="M2670 881 l0 -531 75 0 75 0 0 214 0 214 203 4 c240 6 285 16 357 84
69 65 95 128 95 234 0 106 -27 172 -93 230 -76 68 -108 73 -429 78 l-283 3 0
-530z m524 389 c85 -19 131 -81 131 -175 0 -76 -25 -121 -86 -155 -42 -23 -54
-25 -231 -28 l-188 -4 0 186 0 186 168 0 c92 0 185 -5 206 -10z"/>
</g>
</svg>
